<svg preserveAspectRatio="xMidYMid meet" data-bbox="0.001 0.001 133.999 134.077" xmlns="http://www.w3.org/2000/svg" viewBox="0.001 0.001 133.999 134.077" height="135" width="134" data-type="color" role="img">
    <g>
        <path fill="#F8F4F3" d="M68.823 134.077h-3.565c-.28-.056-.56-.134-.842-.165-3.27-.357-6.584-.486-9.803-1.092-14.433-2.707-26.75-9.431-36.7-20.241C5.449 99.037-.51 82.989.035 64.562a64.647 64.647 0 0 1 7.453-28.434C14.26 23.193 24.212 13.405 37.295 6.906 47.708 1.748 58.765-.595 70.405.13c3.362.183 6.707.602 10.01 1.254 14.306 2.932 26.401 9.874 36.205 20.696 9.341 10.313 14.907 22.422 16.732 36.23.269 2.037.445 4.09.648 6.135v5.124c-.058.278-.136.552-.167.83-.339 2.94-.486 5.912-1.034 8.81-2.783 14.743-9.703 27.246-20.8 37.337-10.975 9.972-23.906 15.68-38.698 17.133-1.488.136-2.983.263-4.478.399zM25.35 83.687h25.151v-6.323H34.98c.423-1.97 1.56-3.202 3.075-4.08 1.92-1.114 3.887-2.145 5.852-3.18 1.823-.957 3.478-2.11 4.78-3.733 3.564-4.456 3.457-13.283-4.96-15.471a21.21 21.21 0 0 0-6.147-.615c-4.251.178-7.851 1.793-10.124 5.625-1.074 1.81-1.504 3.788-1.497 5.902h7.858c.26-1.071.388-2.078.753-2.992.858-2.15 3.358-3.14 5.679-2.353 1.985.669 2.932 2.687 2.377 4.989-.423 1.76-1.59 2.896-3.101 3.723-1.983 1.078-4.01 2.094-6.016 3.135-5.783 3-9.19 9.386-8.158 15.373zm33.934.08c2.999 0 5.668.026 8.335-.03a1.7 1.7 0 0 0 1.14-.654c3.269-4.405 6.535-8.812 9.728-13.27 3.647-5.098 2.624-13.007-2.168-16.808-3.389-2.691-7.334-3.157-11.476-2.573-5.755.81-10.057 5.49-10.258 11.144-.252 6.773 3.262 11.586 9.433 12.907.633.136 1.268.26 2.032.419l-6.766 8.865zm26.047-.065h7.495v-9.879c.406.52.615.773.811 1.039 2.027 2.738 4.035 5.494 6.11 8.199.339.39.82.63 1.336.668 2.406.067 4.817.036 7.225.029.27 0 .537-.056.945-.098l-9.431-12.174 9.377-11.035c-2.978 0-5.672-.025-8.363.029-.317 0-.693.368-.927.657-1.442 1.783-2.85 3.603-4.273 5.403-.892 1.114-1.783 2.212-2.656 3.317l-.223-.089v-19.74h-7.426v33.674z" data-color="1"></path>
        <path fill="#F8F4F3" d="M67.602 56.414c3.313-.027 5.617 2.45 5.641 6.091.025 3.64-2.212 6.125-5.57 6.167-3.358.042-5.659-2.408-5.708-6.035-.045-3.668 2.241-6.197 5.637-6.223z" data-color="1"></path>
    </g>
</svg>