<svg preserveAspectRatio="xMidYMid meet" data-bbox="0 0 324 68.656" xmlns="http://www.w3.org/2000/svg" viewBox="0 0 324 68.656" height="69" width="324" data-type="color" role="img">
    <g>
        <path fill="#F8F4F3" d="M.004 0h17.943v14.195c1.48-.122 2.813-.28 4.153-.332 6.5-.254 12.779.581 18.476 3.99 4.447 2.662 7.289 6.635 8.808 11.499 2.405 7.689 2.405 15.421-.127 23.09-2.387 7.215-7.433 11.673-14.667 13.804-3.48 1.028-7.053 1.428-10.662 1.443-7.577.033-15.153 0-22.737.013-.397 0-.793.049-1.191.075L.004 0zm18.008 50.163c2.72.623 5.365.655 7.986-.234 2.392-.814 4.025-2.405 4.851-4.793.908-2.618.984-5.453.22-8.117-.801-2.94-2.681-4.86-5.633-5.632a15.53 15.53 0 0 0-3.646-.544c-1.246-.022-2.499.247-3.778.393v18.927z" data-color="1"></path>
        <path fill="#F8F4F3" d="M105.817 68.647c-1.006-.219-2.007-.455-3.015-.656-3.75-.754-7.28-2.031-10.363-4.344-3.452-2.588-5.751-6.01-7.14-10.056a35.526 35.526 0 0 1-1.832-10.993c-.068-3.935.335-7.809 1.478-11.587 2.39-7.87 7.628-12.837 15.588-14.918 7.092-1.856 14.166-1.786 21.184.402 7.215 2.245 11.945 7.018 14.134 14.193 2.37 7.79 2.322 15.6-.391 23.296-2.46 6.996-7.508 11.316-14.585 13.314-1.843.52-3.766.76-5.649 1.139-.154.055-.3.129-.437.219l-8.972-.01zm-3.076-26.834a14.195 14.195 0 0 0 .841 5.221c1.166 3.112 3.546 4.65 7.138 4.615 3.236-.035 5.658-1.749 6.684-4.792 1.025-3.043 1.038-6.121.29-9.215-.815-3.373-2.896-5.387-6.412-5.723-3.111-.309-6.34.902-7.671 4.455a14.795 14.795 0 0 0-.87 5.44z" data-color="1"></path>
        <path fill="#F8F4F3" d="M259.944 68.647c-.686-.145-1.366-.322-2.059-.437-3.992-.634-7.792-1.78-11.135-4.139-3.749-2.645-6.252-6.226-7.783-10.494-1.7-4.748-2.153-9.65-1.819-14.667.219-3.314.722-6.559 1.92-9.659 2.468-6.388 7.07-10.611 13.489-12.883 4.556-1.613 9.269-2.024 14.081-1.6 2.504.183 4.967.727 7.315 1.615 5.534 2.187 9.06 6.268 11.1 11.725a27.987 27.987 0 0 1 1.781 9.132c.066 2.64.013 5.284.013 8.058H255.79c.394 3.62 2.256 6.008 5.405 7.462 2.702 1.246 5.577 1.558 8.51 1.53a30.325 30.325 0 0 0 16.102-4.722c.236-.128.479-.243.728-.343v14.304a38.49 38.49 0 0 1-6.218 2.735 42.408 42.408 0 0 1-9.759 2.186c-.12.013-.219.13-.343.197h-10.271zm11.233-32.227c-.254-1.517-.411-2.914-.728-4.274-1.445-6.211-8.579-6.675-11.895-3.953-2.565 2.106-2.842 5.125-2.993 8.227h15.616z" data-color="1"></path>
        <path fill="#F8F4F3" d="M315.911 68.647c-1.198-.219-2.405-.418-3.592-.656-4.41-.907-8.485-2.505-11.867-5.605-2.923-2.683-4.777-5.993-5.942-9.725a34.344 34.344 0 0 1-1.543-10.174c-.029-12.562 0-25.126 0-37.69v-.812h18.056v13.013H324v16.781h-12.899c-.062.157-.109.32-.137.487.039 3.004-.059 6.021.172 9.012.234 3.041 1.784 5.393 4.591 6.777 2.602 1.29 5.396 1.627 8.258 1.585v17.007h-8.074z" data-color="1"></path>
        <path fill="#F8F4F3" d="M164.626 68.647c-1.006-.219-2.007-.45-3.017-.656-3.454-.686-6.732-1.825-9.661-3.821-4.272-2.912-6.867-7.007-8.308-11.891a36.9 36.9 0 0 1-1.44-11.493c.105-4.005.712-7.938 2.173-11.698 2.444-6.29 6.937-10.435 13.336-12.523a35.336 35.336 0 0 1 15.071-1.548c2.186.245 4.373.72 6.539 1.115.462.116.915.262 1.358.437v17a4.418 4.418 0 0 1-.619-.194c-2.687-1.312-5.542-1.705-8.485-1.404-1.407.119-2.799.38-4.153.783-3.42 1.093-5.337 3.561-5.802 7.057a14.575 14.575 0 0 0 .076 4.329c.676 3.965 3.244 6.213 7.077 7.044 4.044.874 8.012.669 11.873-1.295v17.158c-1.237.306-2.521.656-3.819.933-.958.204-1.937.3-2.906.46-.116.019-.218.135-.328.205l-8.965.002z" data-color="1"></path>
        <path fill="#F8F4F3" d="M219.779 38.519l20.352 29.113c-.47.029-.776.064-1.093.066-6.012 0-12.024-.018-18.032.022-.809 0-1.238-.296-1.64-.934a7227.586 7227.586 0 0 0-13.417-21.15 2.523 2.523 0 0 0-.752-.815v22.796h-17.341V.057H205.2v34.072l.218.094c.328-.455.656-.908.986-1.362 3.836-5.343 7.667-10.686 11.493-16.027.308-.438.603-.724 1.218-.722 6.084.026 12.168.015 18.252.018.129 0 .258.017.562.039l-18.15 22.35z" data-color="1"></path>
        <path fill="#F8F4F3" d="M57.985.033h17.837v67.595H57.985V.033z" data-color="1"></path>
    </g>
</svg>