<svg preserveAspectRatio="xMidYMid meet" data-bbox="0 0 162.887 164" xmlns="http://www.w3.org/2000/svg" viewBox="0 0 162.887 164" height="164" width="163" data-type="color" role="img"><defs><style>#comp-kgcc4bcb svg [data-color="1"] {fill: #312782;}</style></defs>
    <g>
        <path fill="#F8F4F3" d="M162.887 118.463v-.913c0-6.847-2.042-13.581-6.012-19.515l-.227-.343c-3.403-5.25-8.167-9.814-13.612-12.896-3.403-2.168-7.033-3.88-11.003-5.25 12.251-5.25 18.376-17.119 18.376-35.037 0-23.738-18.489-41.884-45.032-44.28L99.706 0H0v164h112.977c.794 0 1.701 0 2.496-.114h.453c27.677-1.598 46.961-19.858 46.961-44.395v-1.028zM94.828 69.96H25.635V24.08H96.53c2.155 0 4.197.115 5.898.115 7.373.913 19.964 4.45 21.665 18.83l.114 1.028c.113.799.113 1.712.113 2.51.114 14.837-10.662 23.397-29.492 23.397zM25.635 94.04h81.67c18.717 0 29.492 8.56 29.492 23.396 0 13.467-6.125 20.315-19.85 22.255 0 0-1.248.228-2.042.228H25.749V94.04h-.114z" data-color="1"></path>
    </g>
</svg>