<svg preserveAspectRatio="xMidYMid meet" data-bbox="0 0 321.215 55.628" xmlns="http://www.w3.org/2000/svg" viewBox="0 0 321.215 55.628" height="56" width="322" data-type="color" role="img">
    <g>
        <path fill="#F8F4F3" d="M116.415 43.609c-5.311-.168-10.528-2.063-13.83-7.576-3.444-5.748-2.956-13.933 1.137-19.16 2.756-3.522 6.541-5.194 10.881-5.72 3.778-.46 7.427 0 10.893 1.692 4.925 2.423 7.546 6.503 8.256 11.787.604 4.512-.064 8.84-2.846 12.632-2.994 4.083-7.816 6.303-14.491 6.345zm10.389-16.028c-.049-3.151-.836-5.752-3.001-7.776-3.791-3.544-10.312-3.328-13.768.416-3.579 3.867-3.399 11.095.443 14.562 3.193 2.877 6.948 3.222 10.758 1.656 3.961-1.63 5.446-5.023 5.568-8.858z" data-color="1"></path>
        <path fill="#F8F4F3" d="M210.62 43.615c-5.359-.142-10.222-1.766-13.634-6.445-5.246-7.17-3.534-18.457 3.598-23.278 3.428-2.323 7.292-3.103 11.407-2.864 2.401.105 4.757.68 6.936 1.695 5.269 2.5 7.913 6.828 8.561 12.438.418 3.606-.061 7.137-1.85 10.389-2.695 4.9-7.067 7.202-12.435 7.914-.794.116-1.6.103-2.583.151zm-9.445-17.252c-.087 8.036 5.66 12.245 12.355 10.575 3.534-.873 5.731-3.248 6.563-6.737.922-3.867.322-7.473-2.621-10.36-2.692-2.633-7.267-3.332-10.768-1.718-3.887 1.776-5.461 5.018-5.529 8.24z" data-color="1"></path>
        <path fill="#F8F4F3" d="M55.59 27.77c.038 15.326-12.459 27.861-27.773 27.858C12.587 55.628.084 43.18 0 27.935-.083 12.691 12.352.133 27.737.001 42.97-.131 55.55 12.413 55.589 27.771zm-52.162.056a24.467 24.467 0 0 0 1.876 9.363 24.407 24.407 0 0 0 5.314 7.925 24.322 24.322 0 0 0 7.94 5.271 24.262 24.262 0 0 0 9.35 1.811c13.402-.039 24.366-11.023 24.353-24.393-.013-13.37-10.974-24.344-24.376-24.37a24.263 24.263 0 0 0-9.348 1.82 24.323 24.323 0 0 0-7.935 5.278 24.409 24.409 0 0 0-5.307 7.93 24.468 24.468 0 0 0-1.867 9.365z" data-color="1"></path>
        <path fill="#F8F4F3" d="M68.677 43.013v-31.15c1.114-.023 5.091-.02 5.5 0 4.535.112 4.847.032 9.37.322a15.54 15.54 0 0 1 7.363 2.449c3.534 2.255 5.593 5.52 6.178 9.644.768 5.417-.247 10.33-4.53 14.133-2.624 2.326-5.763 3.812-9.213 4.092-4.822.394-8.465.51-14.668.51zm6.84-6.58c1.968 0 3.838.145 5.679-.03 6.203-.586 9.5-4.437 8.93-10.31-.32-3.32-2.084-5.614-5.14-6.942-3.055-1.327-6.229-1.021-9.48-1.015l.01 18.296z" data-color="1"></path>
        <path fill="#F8F4F3" d="M232.388 11.582c5.41.177 10.772 0 16.043.622 6.454.744 9.686 7.785 6.592 13.534a7.602 7.602 0 0 1-4.311 3.622c-.392.138-.787.26-1.285.428l7.797 13.009h-8.198l-6.486-12.342h-3.335v12.293h-6.817V11.582zm6.788 13.17c2.471 0 4.761.042 7.016-.245 1.908-.242 2.744-1.576 2.782-3.303.036-1.611-.8-3.223-2.512-3.48-2.377-.37-4.838-.323-7.286-.323v7.35z" data-color="1"></path>
        <path fill="#F8F4F3" d="M167.98 42.825h-9.576l-12.631-14.694v14.627h-6.792V11.861h6.747v12.802L157.79 11.8h8.957l-13.762 14.394 14.995 16.63z" data-color="1"></path>
        <path fill="#F8F4F3" d="M306.306 36.545h14.909v6.229h-21.71V11.862h20.955v6.174h-14.157v5.8h13.277v6.294h-13.274v6.415z" data-color="1"></path>
        <path fill="#F8F4F3" d="M293.864 14.276c-1.5 1.64-3.004 3.283-4.555 4.985-2.323-1.889-4.819-2.578-7.633-1.402a3.856 3.856 0 0 0-1.311.87 2.58 2.58 0 0 0-.665 2.14 2.591 2.591 0 0 0 1.256 1.852 20.898 20.898 0 0 0 3.508 1.521c1.449.538 2.982.87 4.382 1.508a8.87 8.87 0 0 1 3.313 2.614 8.913 8.913 0 0 1-.656 11.71c-2.361 2.471-5.358 3.364-8.674 3.499-4.629.193-7.999-.95-11.218-3.867.187-.242.357-.506.569-.735 1.359-1.495 2.731-2.98 4.176-4.55 1.545 1.612 3.267 2.794 5.461 2.769a9.706 9.706 0 0 0 3.56-.645c2.094-.876 2.329-3.454.469-4.772a13.959 13.959 0 0 0-3.01-1.447c-1.738-.677-3.534-1.183-5.259-1.908-7.312-3.1-5.783-11.745-1.285-15.054 4.796-3.506 13.608-3.058 17.572.912z" data-color="1"></path>
        <path fill="#F8F4F3" d="M176.455 42.745V17.837h-8.837v-5.975h24.485v5.92h-8.773v24.963h-6.875z" data-color="1"></path>
        <path fill="#F8F4F3" d="M264.098 35.063a4.05 4.05 0 0 1 3.771 2.497c.206.494.314 1.024.315 1.56-.022 2.188-2.004 4.092-4.176 3.995a4.154 4.154 0 0 1-2.763-1.266 4.178 4.178 0 0 1-1.166-2.813c.029-2.127 1.928-4.005 4.019-3.973z" data-color="1"></path>
        <path fill="#F8F4F3" d="M39.774 24.287v6.957h-8.381v8.5h-6.98v-8.361h-8.527v-7.009h8.41v-8.461h7.033v8.378l8.445-.004z" data-color="1"></path>
    </g>
</svg>