<svg preserveAspectRatio="xMidYMid meet" data-bbox="0 0 153 100.745" xmlns="http://www.w3.org/2000/svg" viewBox="0 0 153 100.745" height="101" width="153" data-type="color" role="img">
    <g>
        <path fill="#F8F4F3" d="M107.523 3.056c5.557-2.724 8.311-2.367 8.373.394.074 3.588-.457 8.358-.84 11.81-2.062 18.76-5.508 34.09-5.767 53.352 9.077-23.456 16.684-39.758 26.49-59.836 3.112-6.398 5.101-5.202 7.657-6.336 9.954-4.426 10.324-1.714 9.027 3.698-4.828 20.043-17.191 83.152-19.08 92.87-.543 2.811-3.606 1.619-4.396.52-3.545-4.894-7.546-4.97-7.102-8.225 2.223-16.201 10.226-56.85 12.313-66.428-10.633 21.759-21.661 48.96-27.33 64.384-1.198 3.275-3.384 3.035-4.742.639-1.915-3.367-5.632-5.085-6.25-9.063C93.939 68.188 98.1 44.08 98.68 28.83c-5.792 16.66-15.511 49.005-19.772 63.618-1.754 6.047-7.608 5.06-6.052-.833 6.472-24.525 20.415-67.9 26.442-83.493 1.42-3.673 5.137-3.55 8.225-5.066z" data-color="1"></path>
        <path fill="#F8F4F3" d="M72.227.048c-1.877-.456-7.324 2.478-10.67 3.057-1.063.185-2.075 1.307-2.433 2.108a956.644 956.644 0 0 0-14.326 34.678 365.722 365.722 0 0 0-18.512 3.663 3110.363 3110.363 0 0 1 14.943-37.49c2.42-5.967-3.952-6.534-6.422-.494-3.211 7.853-9.226 22.565-15.882 39.713a394.408 394.408 0 0 0-15.5 4.128c-3.939 1.135-4.1 2.183-2.395 4.541.939 1.313 2.878 1.181 3.767 2.117 2.297 2.424 3.692 5.325 7.805 5.764C8.934 71.626 5.266 81.726 1.944 91.45c-2.087 6.104 3.853 7.352 6.138.893 3.68-10.412 7.558-20.95 11.547-31.458 3.322-.77 11.361-2.499 18.784-4.106-5.891 16.116-9.77 28.355-11.239 34.313-.271 1.146.186 1.782.433 2.25 1.988 2.888 3.877 3.006 6.434 6.577.692.974 3.013 1.499 3.804-.899 5.458-16.457 11.077-31.9 16.314-45.742 2.173-.475 6.088-1.418 8.484-4.987 4.26-6.333 5.483-5.049 6.508-6.974 1.285-2.417.432-4.687-4.112-4.126 0 0-1.717.122-4.89.483 5.038-12.95 9.447-23.933 12.62-32.303 1.088-2.834 1.224-4.905-.542-5.324z" data-color="1"></path>
        <path fill="#F8F4F3" d="M64.793 84.036c1.173 2.96 4.84 2.063 3.445-1.509-1.42-3.639-4.952-14.594-5.879-18.123-1.26-4.756 4.2-3.455 1.433-.346-2.37 2.673-3.952 3.744-8.336 8.828-4.236 4.907-3.087 11.276 1.445 12.682 5.113 1.588 9.62-4.036 12.412-8.161 2.704-3.995.086-6.339-2.643-3.977-1.754 1.519-3.78 3.85-5.83 5.108-1.667 1.012-2.976-.075-.753-3.13 2.581-3.536 5.471-6.5 7.62-9.841 4.384-6.81-4.285-10.737-8.015-6.313-2 2.358-1.495 4.673-.951 6.66.877 3.183 4.137 13.343 6.052 18.122z" data-color="1"></path>
    </g>
</svg>