<svg preserveAspectRatio="xMidYMid meet" data-bbox="0 0 326 61.658" xmlns="http://www.w3.org/2000/svg" viewBox="0 0 326 61.658" height="62" width="326" data-type="color" role="img">
    <g>
        <path fill="#F8F4F3" d="M44.761 47.633l-4.242 4.04c-1.42 1.354-2.831 2.717-4.269 4.055a1.222 1.222 0 0 0-.444 1.015c.027 1.111.011 2.225 0 3.344 0 .285-.026.57-.042.893h-4.233V46.603l-6.084-1.83c-3.222 5.22-7.705 7.776-13.797 6.45-4.988-1.085-8.185-4.378-9.196-9.325-1.18-5.793 1.18-10.229 6.195-13.396-.305-.909-.62-1.846-.947-2.81a7.295 7.295 0 0 1-5.517-2.178 7.278 7.278 0 0 1-2.136-4.41 7.488 7.488 0 0 1 13.824-4.767c1.574 2.628 1.894 6.795-2.044 10.07l.942 2.846c3.877-.393 7.326.622 10.129 3.36 2.773 2.71 3.934 6.078 3.657 10l4.78 1.438c.196-.757.255-11.2.092-12.927-4.77-.901-8.429-3.417-10.76-7.739-1.518-2.819-1.965-5.86-1.473-8.993C20.398 4.76 26.946-.248 34.118.009c7.394.264 13.006 5.6 14.042 12.519 1.067 7.11-3.4 15.022-12.301 16.635v20.969c.59-.197 3.52-3.002 5.86-5.604-1.726-2.83-2.123-5.878-1.11-9.049a9.95 9.95 0 0 1 4.328-5.508 10.447 10.447 0 0 1 13.169 1.633c3.493 3.696 3.82 9.117.983 13.228-2.582 3.754-8.33 6.218-14.328 2.801zm-.899-33.032c-.078-5.56-4.457-10.17-10.254-10.146a10.18 10.18 0 0 0 .055 20.357c5.872-.028 10.13-4.642 10.2-10.211zm-21.68 24.74c-.134-4.226-3.273-7.696-7.73-7.745-4.367-.047-7.853 3.295-7.84 7.805.014 4.316 3.258 7.76 7.8 7.723 4.729-.04 7.634-3.653 7.77-7.784zm28.29 5.507c3.21-.082 6.05-2.411 6.058-6.015 0-3.395-2.541-6.02-6.017-6.02-3.407 0-6.017 2.585-6.007 6.034.01 3.448 2.638 5.84 5.966 6.001zM7.38 21.52a3.356 3.356 0 0 0 3.436-3.253c.047-1.708-1.497-3.37-3.275-3.344-2.13.035-3.326 1.583-3.363 3.324-.038 1.74 1.469 3.245 3.202 3.273z" data-color="1"></path>
        <path fill="#F8F4F3" d="M187.586 60.978h-6.641V17.473h6.594v13.545c.364-.242.59-.38.814-.543 1.503-1.125 3.13-1.8 5.069-1.725 1.891.07 3.765.021 5.618.59 3.934 1.202 6.336 3.82 7.396 7.732a15.45 15.45 0 0 1 .472 4.068v19.533c0 .13-.017.26-.031.448h-6.574V41.542c0-1.378-.232-2.727-.984-3.925-.967-1.55-2.332-2.421-4.215-2.36a9.07 9.07 0 0 1-1.277 0c-1.256-.134-2.323.332-3.249 1.091-.927.76-1.729 1.596-2.597 2.388-.415.378-.393.858-.393 1.354v19.73l-.002 1.158z" data-color="1"></path>
        <path fill="#F8F4F3" d="M125.074 47.218h-19.952c-.287.85.014 1.643.098 2.43a7.535 7.535 0 0 0 1.204 3.37 4.4 4.4 0 0 0 3.69 2.059 58.94 58.94 0 0 0 3.439 0c1.221-.026 2.23-.518 2.876-1.574.487-.797.881-1.65 1.377-2.596 2.106.393 4.258.965 6.491 1.487.001.161-.014.323-.045.482-.899 2.724-2.306 5.114-4.721 6.776a10.46 10.46 0 0 1-5.955 1.912 126.79 126.79 0 0 1-3.344 0c-4.756-.065-8.851-2.805-10.722-7.32-.948-2.289-1.33-4.693-1.361-7.14a57.18 57.18 0 0 1 .197-6.361c.348-3.529 1.573-6.708 4.307-9.137a11.297 11.297 0 0 1 4.898-2.53c1.832-.446 6.537-.44 8.262.016 4.4 1.163 7.081 4.078 8.429 8.303.534 1.643.81 3.359.816 5.087.018 1.554.016 3.09.016 4.736zm-6.895-5.91c-.246-1.507-.556-2.827-1.339-3.986-.897-1.33-2.081-2.122-3.755-2.065-1.047.035-2.095.012-3.148 0a3.804 3.804 0 0 0-2.811 1.168c-1.302 1.304-1.807 2.95-2.051 4.879l13.104.003z" data-color="1"></path>
        <path fill="#F8F4F3" d="M288.139 50.88l6.574 1.531a12.938 12.938 0 0 1-2.398 4.96c-1.881 2.387-4.361 3.813-7.374 4.171-1.389.164-2.815.087-4.22.028a14.893 14.893 0 0 1-2.893-.38c-3.946-.96-6.545-3.481-8.043-7.18a16.604 16.604 0 0 1-1.208-6.186c-.01-2.028-.071-4.06.037-6.082.152-2.827.862-5.508 2.467-7.901 1.77-2.65 4.262-4.3 7.394-4.841 2.52-.433 5.089-.49 7.591.1 4.097.964 6.76 3.605 8.261 7.475.801 2.057 1.074 4.22 1.167 6.406.059 1.377.012 2.744.012 4.241-1.342.04-2.67.012-3.997.016-1.328.004-2.685 0-4.027 0H275.43c-.043 2.394.311 4.6 1.869 6.432.818.962 1.967 1.377 3.216 1.42 1.015.03 2.03-.017 3.045.016 1.691.055 2.862-.724 3.617-2.183.327-.634.608-1.287.962-2.042zm.356-9.62c-.258-2.036-.818-3.832-2.382-5.155a3.582 3.582 0 0 0-2.441-.856c-1.147.021-2.296-.024-3.441.02a4.211 4.211 0 0 0-1.418.297c-1.573.649-2.396 1.967-2.895 3.499-.224.684-.523 1.39-.394 2.195h12.971z" data-color="1"></path>
        <path fill="#F8F4F3" d="M264.834 37.977l-6.871 1.49c-.142-.363-.236-.666-.378-.945-.308-.604-.59-1.241-.983-1.78-.761-1.025-1.784-1.574-3.12-1.495-.816.05-1.64-.036-2.455.021-1.257.085-2.258.66-2.818 1.816-.657 1.36-.297 3 1.477 3.5 2.813.786 5.626 1.589 8.458 2.34 1.8.48 3.433 1.222 4.721 2.61 1.865 2.017 2.557 4.418 2.315 7.115-.435 4.752-4.042 7.585-7.628 8.535a11.33 11.33 0 0 1-3.287.407c-.917-.027-1.835 0-2.754 0-4.345 0-7.539-1.955-9.717-5.657a16 16 0 0 1-1.534-3.596c2.24-.623 4.5-.999 6.688-1.583.427.816.767 1.62 1.237 2.34.881 1.352 2.164 2.062 3.794 2.005 1.181-.041 2.361 0 3.508-.212 1.245-.236 2.146-1.037 2.531-2.32.386-1.282-.1-2.442-1.361-2.95a18.124 18.124 0 0 0-1.863-.569c-2.626-.737-5.271-1.414-7.88-2.214-3.237-.996-5.224-3.183-5.863-6.535-.567-2.974.137-5.636 2.112-7.913a10.031 10.031 0 0 1 4.45-2.927 16.001 16.001 0 0 1 8.887-.348c4.038.96 6.503 3.77 7.939 7.557.145.4.245.812.395 1.308z" data-color="1"></path>
        <path fill="#F8F4F3" d="M176.183 60.978h-6.688V41.245a7.062 7.062 0 0 0-.997-3.728c-.919-1.515-2.298-2.264-4.078-2.262-.393.022-.787.022-1.18 0-1.473-.163-2.699.393-3.761 1.326-.86.755-1.641 1.599-2.471 2.388-.303.289-.273.639-.273.997v21.047c-1.125.018-2.223 0-3.322 0h-3.305V29.051c.201-.033.404-.056.608-.067 1.211 0 2.425-.016 3.637 0 .867.014 1.219.3 1.471 1.135.12.403.224.808.378 1.357.375-.267.686-.478.983-.704 1.068-.82 2.19-1.54 3.529-1.837.346-.09.7-.143 1.056-.16 1.145-.015 2.296-.043 3.439.018 2.219.116 4.304.724 6.155 1.979 2.421 1.639 3.841 3.968 4.396 6.798.256 1.279.391 2.579.405 3.883.04 6.283.018 12.567.018 18.852v.673z" data-color="1"></path>
        <path fill="#F8F4F3" d="M230.186 29.366h6.688v31.64h-4.737c-.489 0-.773-.276-.91-.738-.138-.462-.299-.923-.482-1.481-.49.373-.946.718-1.399 1.066a8.398 8.398 0 0 1-3.208 1.603c-.09.038-.183.07-.277.094-3.435.197-6.789 0-9.757-2.035-2.288-1.574-3.643-3.777-4.306-6.425a14.937 14.937 0 0 1-.444-3.676c.009-6.446.009-12.89 0-19.334v-.712h6.705v19.725a7.187 7.187 0 0 0 .903 3.54c.873 1.575 2.266 2.24 3.983 2.448 2.091.255 3.752-.567 5.209-1.957.285-.27.574-.535.85-.815 1.18-1.194 1.18-1.196 1.18-2.913V30.453l.002-1.087z" data-color="1"></path>
        <path fill="#F8F4F3" d="M306.025 31.492c.59-.42 1.084-.771 1.574-1.133a7.8 7.8 0 0 1 5.114-1.613c1.859.075 3.708.037 5.508.62 3.985 1.282 6.383 3.996 7.349 8.01.3 1.303.444 2.637.429 3.975-.02 6.184 0 12.366 0 18.55v.959c-.742.196-4.918.242-6.676.084v-19.78a6.716 6.716 0 0 0-1.145-3.871 4.452 4.452 0 0 0-3.706-2.034c-.557-.02-1.117.035-1.67-.01a4 4 0 0 0-2.992.983c-1.019.868-1.981 1.804-2.933 2.754a1.277 1.277 0 0 0-.275.787c-.042.62-.014 1.243-.014 1.865v19.228c-.689.196-5.396.248-6.566.06V28.995c1.505 0 2.972-.032 4.436.014.59.017 1.024.393 1.18 1l.387 1.484z" data-color="1"></path>
        <path fill="#F8F4F3" d="M66.836 50.846l6.861-1.529c.209.51.364.968.578 1.395.325.707.699 1.39 1.12 2.045.983 1.409 2.38 2.111 4.08 2.133a23.49 23.49 0 0 0 3.51-.173c1.275-.175 2.152-1.017 2.815-2.083a8.799 8.799 0 0 0 1.296-4.639c.046-7.46.02-14.924.018-22.385a2.484 2.484 0 0 0-.067-.36h-9.323v-6.21h16.348c.017.22.055.469.055.716 0 9.033.033 18.066-.016 27.096-.016 2.941-.41 5.839-1.798 8.516-1.757 3.393-4.497 5.466-8.271 6.011-2.786.394-5.589.447-8.349-.354-3.255-.944-5.592-3.002-7.222-5.901a14.544 14.544 0 0 1-1.635-4.278z" data-color="1"></path>
        <path fill="#F8F4F3" d="M129.458 28.99c1.536 0 3.008-.02 4.479 0 .722.014.95.23 1.161.94.173.59.33 1.18.519 1.851.718-.55 1.377-1.06 2.042-1.574 1.341-1.018 2.812-1.573 4.541-1.469 1.33.083 2.668.016 4.043.016v6.896c-1.18 0-2.319.041-3.454-.01a5.398 5.398 0 0 0-4.019 1.478c-.677.615-1.31 1.278-2.002 1.874-.475.407-.581.882-.577 1.474.018 4.58 0 9.164 0 13.745v6.726h-6.733V28.99z" data-color="1"></path>
    </g>
</svg>