<svg preserveAspectRatio="xMidYMid meet" data-bbox="0.496 0 640.504 544" xmlns="http://www.w3.org/2000/svg" viewBox="0.496 0 640.504 544" height="544" width="641" data-type="color" role="img">
    <g>
        <path fill="#312782" d="M641 61.756v67.461L514.869 0h65.85L641 61.756zM454.173 0L641 191.399v67.461L388.323 0h65.85zM323.791 0L641 324.97v67.462L257.941 0h65.85zM192.643 0l54.008 55.33.002-.784L641 458.542v67.462L127.559 0h65.084zM66.096 0l180.292 184.703.001-.784L597.87 544h-65.851L1.573.574 1.575 0h64.521zM14.328 544L.496 529.829l.135-66.537L79.411 544H14.329zm130.382 0L.767 396.535l.136-66.537L209.793 544H144.71zm126.546 0L1.03 267.162l.136-66.537 244.679 250.666.002-.784L337.107 544h-65.851zm130.382 0L1.302 133.868l.135-66.537 244.679 250.666.002-.784L467.488 544h-65.85z" clip-rule="evenodd" fill-rule="evenodd" data-color="1"></path>
    </g>
</svg>