<svg preserveAspectRatio="xMidYMid meet" data-bbox="0 0 152.278 124" xmlns="http://www.w3.org/2000/svg" viewBox="0 0 152.278 124" height="124" width="153" data-type="color" role="img">
    <g>
        <path fill="#F8F4F3" d="M76.216 95.543c12.744 0 24.726-4.973 33.738-13.993 9.014-9.022 13.977-21.016 13.977-33.777 0-12.759-4.963-24.76-13.977-33.78C100.942 4.973 88.96 0 76.216 0c-26.31 0-47.718 21.43-47.718 47.773 0 12.761 4.965 24.755 13.977 33.777 9.014 9.02 20.996 13.993 33.74 13.993zm-40.218-47.77c0-10.76 4.18-20.867 11.78-28.47 7.594-7.604 17.693-11.79 28.438-11.79 10.741 0 20.84 4.186 28.435 11.79 7.594 7.603 11.779 17.71 11.779 28.47 0 22.198-18.042 40.258-40.215 40.258-10.744 0-20.843-4.187-28.437-11.79-7.6-7.603-11.78-17.717-11.78-28.468z" data-color="1"></path>
        <path fill="#F8F4F3" d="M54.293 54.363c.06 2.325 1.43 7.14 7.701 7.14 4.351 0 7.462-2.422 7.462-5.286 0-2.909-1.743-5.455-6.741-6.424l-5.265-1.034c-6.718-1.533-10.824-5.108-10.824-11.563 0-6.536 4.689-12.887 15.496-12.887 12.18 0 14.75 9.22 14.75 12.855h-8.334s.296-6.168-6.913-6.168c-3.964 0-6.638 1.75-6.638 5.528 0 3.325 3.088 4.528 4.867 4.934l7.797 1.672c6.175 1.484 10.422 4.773 10.422 11.983 0 10.402-9.226 13.355-16.014 13.355-11.977 0-16.057-8.038-16.057-14.105h8.291z" data-color="1"></path>
        <path fill="#F8F4F3" d="M91.933 60.224h15.982v7.358H83.337v-42.49h8.596v35.132z" data-color="1"></path>
        <path fill="#F8F4F3" d="M144.548 42.14a69.69 69.69 0 0 1 .226 5.633c0 18.357-7.134 35.612-20.099 48.587-12.965 12.98-30.201 20.131-48.535 20.131-18.333 0-35.572-7.151-48.537-20.13C14.638 83.384 7.498 66.13 7.498 47.771c0-1.892.084-3.767.234-5.632H.202A77.87 77.87 0 0 0 0 47.773c0 20.359 7.92 39.505 22.302 53.896C36.682 116.071 55.802 124 76.14 124c20.339 0 39.455-7.929 53.838-22.331 14.383-14.391 22.3-33.537 22.3-53.896 0-1.89-.065-3.766-.203-5.633h-7.527z" data-color="1"></path>
        <path fill="#F8F4F3" d="M130.28 42.14a56.24 56.24 0 0 1 .286 5.632c0 14.556-5.662 28.239-15.944 38.532-10.278 10.29-23.946 15.961-38.482 15.961-14.539 0-28.206-5.67-38.487-15.961-10.28-10.293-15.946-23.977-15.946-38.532 0-1.896.106-3.773.288-5.632h-7.53a62.312 62.312 0 0 0-.254 5.632c0 16.563 6.44 32.131 18.138 43.843 11.694 11.707 27.247 18.155 43.791 18.155 16.536 0 32.089-6.448 43.788-18.154 11.696-11.713 18.136-27.28 18.136-43.844 0-1.893-.089-3.768-.255-5.632h-7.529z" data-color="1"></path>
    </g>
</svg>