<svg preserveAspectRatio="xMidYMid meet" data-bbox="0 0 178 716" xmlns="http://www.w3.org/2000/svg" viewBox="0 0 178 716" height="716" width="178" data-type="color" role="img"><defs><style>#comp-kh0jqkx8 svg [data-color="1"] {fill: #98DAEC;}</style></defs>
    <g>
        <path fill="#1D1E1F" d="M23.593 0H0v24.17L23.593 0zM0 82.137v59.151L137.913 0H80.175L0 82.137zm178-68.683L0 195.81v59.151L178 72.605V13.454zm0 117.118L0 312.927v59.151l178-182.355v-59.151zm0 117.117L0 430.045v59.151L178 306.84v-59.151zm0 113.673L0 543.717v59.152l178-182.356v-59.151zm0 117.117L0 660.835V716h3.89L178 537.63v-59.151zM118.211 716H60.472L178 595.597v59.151L118.211 716zM178 709.269L171.43 716H178v-6.731z" clip-rule="evenodd" fill-rule="evenodd" data-color="1"></path>
    </g>
</svg>