<svg preserveAspectRatio="xMidYMid meet" data-bbox="0 0 707 347" xmlns="http://www.w3.org/2000/svg" viewBox="0 0 707 347" height="347" width="707" data-type="color" role="img">
    <g>
        <path fill="#1D1E1F" d="M0 60.357L59.31 0h69.64L0 131.226V60.357zm0 212.84v-70.868L198.819 0h69.639L0 273.197zM62.882 347H0v-6.876L334.224 0h69.639L62.883 347zm139.508 0h-69.639L473.732 0h69.639L202.39 347zm139.509 0H272.26L613.24 0h69.64L341.899 347zm135.405 0h-69.639L707 42.38v70.869L477.304 347zm139.508 0h-69.639L707 184.351v70.869L616.812 347zM707 326.323V347h-20.319L707 326.323z" clip-rule="evenodd" fill-rule="evenodd" data-color="1"></path>
    </g>
</svg>